<svg xmlns="http://www.w3.org/2000/svg" viewBox="0 0 1089.17 348.1"><defs><style>.cls-1{fill:#fff;}</style></defs><g id="图层_2" data-name="图层 2"><g id="图层_1-2" data-name="图层 1"><path class="cls-1" d="M25.76,6.49v65.8H0V6.49ZM313.63,347H47.45a45.85,45.85,0,0,1-18.53-3.8,48.86,48.86,0,0,1-15.2-10.28A46.74,46.74,0,0,1,3.61,317.8,47.88,47.88,0,0,1,0,299.17V96.57H25.76v202.6a21.24,21.24,0,0,0,6.49,15.57,20.84,20.84,0,0,0,15.2,6.49H313.63ZM60.8,114.74H310.85V140.5H139.39L99.91,266.18H254.68a21.84,21.84,0,0,0,22.06-22.06V214.28h25.77v29.84a46.38,46.38,0,0,1-3.8,18.72,47.8,47.8,0,0,1-25.31,25.3,46.34,46.34,0,0,1-18.72,3.8H64.88L112.7,140.5H60.8ZM77.11,18H294.17V43.75H77.11Z"/><path class="cls-1" d="M638.19,0V20.2h70.62V46H638.19v20.2H612.43V46H460.06v20.2H434.3V46H363.67V20.2H434.3V0h25.76V20.2H612.43V0ZM369.05,146.62V117.7A38.88,38.88,0,0,1,372.29,102a42.4,42.4,0,0,1,22-22A38.88,38.88,0,0,1,410,76.74H662.47A38.93,38.93,0,0,1,678.23,80a42.33,42.33,0,0,1,22,22,38.89,38.89,0,0,1,3.25,15.75v28.92H677.67V117.7A14.82,14.82,0,0,0,673.32,107a14.6,14.6,0,0,0-10.85-4.45H410A14.58,14.58,0,0,0,399.17,107a14.83,14.83,0,0,0-4.36,10.75v28.92ZM428.18,347a39,39,0,0,1-15.76-3.24A44.1,44.1,0,0,1,399.36,335a39.86,39.86,0,0,1-8.9-12.89,38.73,38.73,0,0,1-3.25-15.75V281.75A38.77,38.77,0,0,1,390.46,266a42.36,42.36,0,0,1,22-22,39,39,0,0,1,15.76-3.25H644.31A38.89,38.89,0,0,1,660.06,244a42.33,42.33,0,0,1,22,22,38.93,38.93,0,0,1,3.24,15.76V306.4A38.88,38.88,0,0,1,682,322.15a40,40,0,0,1-8.9,12.89,44.27,44.27,0,0,1-13.07,8.71A38.88,38.88,0,0,1,644.31,347ZM451,220.58a40,40,0,0,1-28.64-11.87,42.55,42.55,0,0,1-8.71-13A38.77,38.77,0,0,1,410.38,180V162.19a38.81,38.81,0,0,1,3.25-15.76,43.84,43.84,0,0,1,8.71-13.06,40,40,0,0,1,12.88-8.9A38.93,38.93,0,0,1,451,121.23H621.51a38.88,38.88,0,0,1,15.75,3.24,40,40,0,0,1,12.89,8.9,44,44,0,0,1,8.71,13.06,39,39,0,0,1,3.24,15.76V180a38.93,38.93,0,0,1-3.24,15.76,42.73,42.73,0,0,1-8.71,13,40.05,40.05,0,0,1-28.64,11.87ZM644.31,321.23a15.16,15.16,0,0,0,10.75-4.17,14,14,0,0,0,4.45-10.66V281.75a14,14,0,0,0-4.45-10.66,15.16,15.16,0,0,0-10.75-4.17H428.18a15.15,15.15,0,0,0-10.75,4.17A14,14,0,0,0,413,281.75V306.4a14,14,0,0,0,4.45,10.66,15.15,15.15,0,0,0,10.75,4.17Zm-22.8-126.42A14.28,14.28,0,0,0,636.34,180V162.19a15.06,15.06,0,0,0-4.17-10.84A14.1,14.1,0,0,0,621.51,147H451a14.09,14.09,0,0,0-10.66,4.36,15.06,15.06,0,0,0-4.17,10.84V180A14.28,14.28,0,0,0,451,194.81Z"/><path class="cls-1" d="M742.55,307.14l123.08-18.91L870.08,314,746.81,332.91ZM820.77,12.6V52.83h47.82V78.59h-121V52.83H795V12.6ZM787.41,94.9V273.78H761.46V94.9Zm66.35,0V273.78H828V94.9Zm21.32,43.75h214.09v25.76h-89.9L992,188.7h55a38.34,38.34,0,0,1,15.67,3.24,44.7,44.7,0,0,1,13.06,8.8,40.76,40.76,0,0,1,9,12.89,38.26,38.26,0,0,1,3.25,15.66v77.85q0,17.06-11.77,28.64a42.3,42.3,0,0,1-28.83,12.32H1036V322.34h11.12a16.3,16.3,0,0,0,10.66-4.54,14.12,14.12,0,0,0,4.36-10.66V229.29a13.91,13.91,0,0,0-4.36-10.47,14.83,14.83,0,0,0-10.66-4.17h-21.68V347H999.64V214.65H965V347H939.21V214.65H919a14.26,14.26,0,0,0-14.64,14.64V347.73h-26V229.29a38.25,38.25,0,0,1,3.24-15.66,43.23,43.23,0,0,1,8.71-12.89,40.94,40.94,0,0,1,12.88-8.8A39,39,0,0,1,919,188.7h46l7.6-24.29h-97.5ZM995.38,0V90.83h48.19A14.28,14.28,0,0,0,1058.4,76V18.72h25.77V76a38.89,38.89,0,0,1-3.25,15.75,41,41,0,0,1-21.59,21.6,39,39,0,0,1-15.76,3.24H921.05a38.93,38.93,0,0,1-15.76-3.24,45.3,45.3,0,0,1-13.16-8.71,39.35,39.35,0,0,1-9-12.89A38.88,38.88,0,0,1,879.9,76V18.72h26V76a14.1,14.1,0,0,0,4.36,10.66,15,15,0,0,0,10.84,4.17h48.56V0Z"/></g></g></svg>