<svg xmlns="http://www.w3.org/2000/svg" viewBox="0 0 1023 1023"><defs><style>.cls-1{fill:#fff;}.cls-2{fill:none;}</style></defs><g id="图层_2" data-name="图层 2"><g id="图层_1-2" data-name="图层 1"><path class="cls-1" d="M801.73,378.53,528.49,118.37a25,25,0,0,0-34.42,0L221.27,378.53a25,25,0,0,0,34.43,36.18l67.11-63.91V886.66a24.82,24.82,0,0,0,24.84,24.84h78.88V722.81A24.82,24.82,0,0,1,451.37,698H571.64a24.82,24.82,0,0,1,24.83,24.84V911.5h78.89c13.95,0,25.28-11.33,24.84-24.84V350.8l67.11,63.91a25.48,25.48,0,0,0,17.42,7,24.13,24.13,0,0,0,17.88-7.85A24.86,24.86,0,0,0,801.73,378.53ZM511.51,548.93a88.9,88.9,0,1,1,88.9-88.9A89,89,0,0,1,511.51,548.93Z"/><path class="cls-1" d="M922.45,449.13H700.2V886.66c.44,13.51-10.89,24.84-24.84,24.84H857.52c13.94,0,25.28-11.33,24.84-24.84V586.41h40.09a24.84,24.84,0,0,0,24.84-24.84V474A24.82,24.82,0,0,0,922.45,449.13ZM832.68,861.39h-132V587.28h132Zm64.5-324.66H700.64V499.25H897.18Z"/><path class="cls-1" d="M100.56,449.13A24.84,24.84,0,0,0,75.71,474v87.6a24.83,24.83,0,0,0,24.85,24.84H322.81V449.13Zm25.27,87.6V499.25H322.37v37.48Z"/><path class="cls-1" d="M766.43,630.86a20.92,20.92,0,0,0-20.91,20.91v43.58a20.92,20.92,0,1,0,41.84,0V651.77A20.92,20.92,0,0,0,766.43,630.86ZM322.81,886.66V538H165.48a24.82,24.82,0,0,0-24.83,24.84V886.66a24.82,24.82,0,0,0,24.83,24.84H347.65A24.82,24.82,0,0,1,322.81,886.66Zm-.44-25.27h-132V587.28h132Z"/><path class="cls-1" d="M256.56,716.27a20.92,20.92,0,0,1-20.91-20.92V651.77a20.92,20.92,0,0,1,20.91-20.92,20.65,20.65,0,0,1,20.92,20.92v43.58A21.21,21.21,0,0,1,256.56,716.27ZM766.44,825.65a20.92,20.92,0,0,1-20.92-20.92V761.15a20.92,20.92,0,0,1,41.83,0v43.58A20.92,20.92,0,0,1,766.44,825.65Zm-509.88,0a20.92,20.92,0,0,1-20.91-20.92V761.15a20.91,20.91,0,0,1,20.91-20.91,20.65,20.65,0,0,1,20.92,20.91v43.58A21.21,21.21,0,0,1,256.56,825.65Z"/><rect class="cls-2" width="1023" height="1023"/><path class="cls-1" d="M511.51,509.37A49.35,49.35,0,1,0,462.16,460,49.4,49.4,0,0,0,511.51,509.37Z"/></g></g></svg>