<svg xmlns="http://www.w3.org/2000/svg" viewBox="0 0 1023 1023"><defs><style>.cls-1{fill:none;}.cls-2{fill:#fff;}</style></defs><g id="图层_2" data-name="图层 2"><g id="图层_1-2" data-name="图层 1"><rect class="cls-1" width="1023" height="1023"/><path class="cls-2" d="M588.57,117.71c10.61,5.77,18.95,15.4,24.09,28.27l2.67,4.84V862h33.94l0-477.31L854.45,519a38.59,38.59,0,0,1,18.19,16.51A55.05,55.05,0,0,1,880,562.54V862.06h28.31a24.73,24.73,0,1,1,0,49.43H114.68a24.76,24.76,0,0,1-17.35-42.38,24.2,24.2,0,0,1,17.35-7.1H143V275A54,54,0,0,1,153,244a55.94,55.94,0,0,1,26-20.27L551.43,112.57c13.93-2.49,26.62-.58,37.14,5.14ZM458.47,689.89H299.84a23.33,23.33,0,0,0-24.71,24.72c0,7.41,2.44,13.58,6.79,17.92a23.23,23.23,0,0,0,13.62,6.53l4.3.31H458.47a24.76,24.76,0,1,0,0-49.48Zm332.79,0h-53a24.23,24.23,0,0,0-17.39,7.1,25.18,25.18,0,0,0-7.37,17.62c0,7.41,2.49,13.58,6.84,17.92A23.23,23.23,0,0,0,734,739.06l4.3.31h53a24.76,24.76,0,1,0,0-49.48ZM458.47,531.26H299.84A23.33,23.33,0,0,0,275.13,556c0,7.41,2.44,13.58,6.79,17.92a23.23,23.23,0,0,0,13.62,6.53l4.3.31H458.47a24.76,24.76,0,1,0,0-49.48Zm0-158.63H299.84a24.11,24.11,0,0,0-17.26,7.15,25.26,25.26,0,0,0-7.45,17.57c0,7.41,2.44,13.58,6.79,17.92a23.23,23.23,0,0,0,13.62,6.53l4.3.31H458.47a24.76,24.76,0,1,0,0-49.48Z"/></g></g></svg>