<svg xmlns="http://www.w3.org/2000/svg" viewBox="0 0 1471.94 348.48"><defs><style>.cls-1{fill:#fff;}</style></defs><g id="图层_2" data-name="图层 2"><g id="图层_1-2" data-name="图层 1"><path class="cls-1" d="M40.59,346.62a38.88,38.88,0,0,1-15.75-3.24A40,40,0,0,1,12,334.48a43.92,43.92,0,0,1-8.72-13.07A38.88,38.88,0,0,1,0,305.66V118.07a38.88,38.88,0,0,1,3.24-15.75,41.12,41.12,0,0,1,21.6-21.6,38.88,38.88,0,0,1,15.75-3.24h6.49V33.55H1.48V7.6H165.53V33.55H118.82V77.48H126a38.9,38.9,0,0,1,15.76,3.24,41.06,41.06,0,0,1,21.59,21.6,38.89,38.89,0,0,1,3.25,15.75V305.66a38.89,38.89,0,0,1-3.25,15.75,43.89,43.89,0,0,1-8.71,13.07,40.13,40.13,0,0,1-12.88,8.9A38.9,38.9,0,0,1,126,346.62ZM71,176.55a74,74,0,0,1-7.6,21.32,60.11,60.11,0,0,1-14.45,17.52Q39.85,223,25.77,227.81V254.5h115.1V227.44H134a38.73,38.73,0,0,1-15.75-3.25,43.89,43.89,0,0,1-13.07-8.71,40.13,40.13,0,0,1-8.9-12.88,38.93,38.93,0,0,1-3.24-15.76V103.43H72.85l.37,49.31A123.41,123.41,0,0,1,71,176.55ZM47.08,103.43H40.59a14.42,14.42,0,0,0-10.65,4.17,14.22,14.22,0,0,0-4.17,10.47v81.38q12.6-7.6,17.14-19.74a76.46,76.46,0,0,0,4.54-27Zm79,217.43a14.12,14.12,0,0,0,10.66-4.36,15.06,15.06,0,0,0,4.17-10.84v-25.4H25.77v25.4a15.06,15.06,0,0,0,4.17,10.84,14.12,14.12,0,0,0,10.65,4.36ZM72.85,77.48h20.2V33.55H72.85Zm46,26v83.41a14.12,14.12,0,0,0,4.35,10.66A15.06,15.06,0,0,0,134,201.67h6.86v-83.6a14.22,14.22,0,0,0-4.17-10.47A14.43,14.43,0,0,0,126,103.43Zm74-97.31h97a45.92,45.92,0,0,1,18.53,3.8A48.46,48.46,0,0,1,333.74,35.4a45.94,45.94,0,0,1,3.8,18.54v65.8a45.94,45.94,0,0,1-3.8,18.54,48.46,48.46,0,0,1-25.49,25.48,45.76,45.76,0,0,1-18.53,3.8H236.15a21.68,21.68,0,0,0-21.69,21.51V299.54a21.45,21.45,0,0,0,6.3,15.66,20.76,20.76,0,0,0,15.39,6.4H346.62v25.76H236.15a46.57,46.57,0,0,1-18.63-3.8,47.25,47.25,0,0,1-28.82-44V189.07a47.9,47.9,0,0,1,3.61-18.54,47.24,47.24,0,0,1,10-15.2,45.19,45.19,0,0,1,15.2-10.1,48.58,48.58,0,0,1,18.63-3.62h53.57a20.92,20.92,0,0,0,15.66-6.39,21.4,21.4,0,0,0,6.21-15.48V53.94a21.43,21.43,0,0,0-6.21-15.48,20.92,20.92,0,0,0-15.66-6.39h-97Z"/><path class="cls-1" d="M433.55,24.47l-6.11,18.9H459V0h26.13V7.23h72.67v26H485.08V43.37h84.34a192.06,192.06,0,0,1-75,65.62Q448,132.17,382.58,141.61l-3.33-26.13q10.19-1.49,19.74-3T417.24,109L398.15,90.46,416.5,71.92,446.9,101a205.8,205.8,0,0,0,34.29-14.09,164.91,164.91,0,0,0,27.06-17.79H391.85l17.42-52.27ZM694.73,222.25l-17.06-45.6a15.92,15.92,0,0,0-6.86-7.69,19.3,19.3,0,0,0-10.19-3.06h-215a21.71,21.71,0,0,0-10.75,2.68,14.2,14.2,0,0,0-6.67,8.07h.37l-17.42,45.6L386.84,213l17.06-45.42a42.56,42.56,0,0,1,16.77-20.2,45.64,45.64,0,0,1,24.93-7.23h215a45.64,45.64,0,0,1,24.93,7.23,42.63,42.63,0,0,1,16.78,20.2l17,45.42Zm-129-51.35v17.43h86.56A33.84,33.84,0,0,1,686,222.25v28.36a31.91,31.91,0,0,1-2.68,13,37.25,37.25,0,0,1-7.23,10.84,31.4,31.4,0,0,1-10.85,7.33,33.73,33.73,0,0,1-13,2.59h-51l55.8,20.2,28.17-31.13,18.54,17.42-20.58,22.8,28.92,10.56-8.71,24.29L524.57,284.34h-79V314a7.92,7.92,0,0,0,8,8h44.86v25.76H453.57A33.84,33.84,0,0,1,419.84,314V222.25a33.84,33.84,0,0,1,33.73-33.92h86.2V170.9ZM445.6,226H660.25v-3.7a7.59,7.59,0,0,0-2.32-5.75,7.86,7.86,0,0,0-5.65-2.22H453.57a7.86,7.86,0,0,0-5.65,2.22,7.59,7.59,0,0,0-2.32,5.75Zm212.33,30.4a7.59,7.59,0,0,0,2.32-5.74V248H445.6v10.57H652.28A7.87,7.87,0,0,0,657.93,256.35Zm-67.19-218,50,30.77a138.8,138.8,0,0,0,35-36.7H577.39V6.49H716.78A217,217,0,0,1,693,49.21a187.88,187.88,0,0,1-30.49,32.9l64.14,38.74-13.35,22.43L639.67,98.8a262.7,262.7,0,0,1-39.11,19.92,457.6,457.6,0,0,1-44.85,15.67l-7.6-24.29q19.46-5.55,36.33-11.86a271.11,271.11,0,0,0,31.32-13.9L577.39,60.8Z"/><path class="cls-1" d="M864.7,7.6q-12.8,49.86-33.92,91.2a337.23,337.23,0,0,1-51.72,74.7L760,156.07a307.9,307.9,0,0,0,48.29-69.23Q828,48.38,839.31,1.3Zm212.24,212.24v76a45.94,45.94,0,0,1-3.8,18.54,47.56,47.56,0,0,1-25.4,25.3,46.57,46.57,0,0,1-18.63,3.8H774.43l98.24-210.2,23.54,11.12L815.39,317.71h213.72a21.39,21.39,0,0,0,15.57-6.4,20.91,20.91,0,0,0,6.49-15.48v-76ZM1022.25,2.41l82.86,160.15-23.17,12.23L999.46,14.09Z"/><path class="cls-1" d="M1399.09,322.71h26.14a20.35,20.35,0,0,0,14.82-6,19.9,19.9,0,0,0,6.12-14.74v-240a19.9,19.9,0,0,0-6.12-14.74,20.35,20.35,0,0,0-14.82-6H1152V15.2h273.22a44.15,44.15,0,0,1,18.16,3.8,47.75,47.75,0,0,1,14.74,10.1,49.93,49.93,0,0,1,10,14.83,43.76,43.76,0,0,1,3.8,18V302a43.4,43.4,0,0,1-3.8,18.17,51.85,51.85,0,0,1-10,14.73,44.62,44.62,0,0,1-14.74,10,46,46,0,0,1-18.16,3.62h-26.14ZM1403.72,109H1152V83.23h251.71Zm-246.89,85.08a43.6,43.6,0,0,1,3.8-18,48.89,48.89,0,0,1,10.1-14.83,46.22,46.22,0,0,1,14.83-9.91,45.55,45.55,0,0,1,18-3.62H1347a47,47,0,0,1,18.54,3.62,45.39,45.39,0,0,1,14.74,9.91,47.09,47.09,0,0,1,9.82,14.83,45.61,45.61,0,0,1,3.61,18V269.7a45.58,45.58,0,0,1-3.61,18,46,46,0,0,1-24.56,24.84,46,46,0,0,1-18.54,3.7H1203.54a44.59,44.59,0,0,1-18-3.7,47.65,47.65,0,0,1-14.83-10,48.89,48.89,0,0,1-10.1-14.83,43.57,43.57,0,0,1-3.8-18Zm26,75.63a20.57,20.57,0,0,0,20.76,20.76H1347a20.27,20.27,0,0,0,14.93-6,20,20,0,0,0,6-14.73V194.07a19.74,19.74,0,0,0-6-14.64A20.42,20.42,0,0,0,1347,173.5H1203.54a20.18,20.18,0,0,0-14.74,5.93,19.7,19.7,0,0,0-6,14.64Z"/></g></g></svg>