<svg width="204" height="49" viewBox="0 0 204 49" fill="none" xmlns="http://www.w3.org/2000/svg">
<g clip-path="url(#clip0_1610_18293)">
<path d="M55.5663 0.128906H24.3591L21.4928 4.06482H46.9466C56.0514 4.06482 58.3734 11.1233 55.8207 14.5219L51.7238 19.9944H37.8625C35.2299 19.9944 36.0256 18.9313 36.4634 18.3474C37.3301 17.1855 38.7529 15.2364 39.6048 14.1036C40.4567 12.9707 40.4626 12.3608 38.7499 12.3608H15.4407L2.19171 30.4979C-3.31021 38.0502 2.19171 48.5276 11.6219 48.5276H39.6373C43.8108 48.528 47.9252 47.5586 51.6442 45.6988C55.3633 43.8389 58.5814 41.1414 61.0357 37.8266L69.6997 25.0748C76.6658 14.4115 71.9981 0.128906 55.5663 0.128906ZM31.5442 33.1296H10.3233C9.96334 33.1296 9.61042 33.0316 9.30377 32.8465C8.99712 32.6613 8.74877 32.3963 8.58632 32.0809C8.42386 31.7654 8.35367 31.4119 8.38355 31.0597C8.41343 30.7074 8.54221 30.3702 8.75556 30.0855L18.9607 16.468H29.5623C31.275 16.468 31.2543 17.1071 30.4172 18.2109L27.255 22.4489C26.8172 23.0328 26.0304 24.1075 28.6542 24.1075H48.9166C47.1951 26.4313 41.5896 33.1296 31.5442 33.1296Z" fill="white"/>
<path d="M88.6953 26.8245L100.838 24.6779L100.841 22.543L88.6953 24.5792V26.8245Z" fill="white"/>
<path d="M150.779 0.00390625H148.442V27.6018H150.779V0.00390625Z" fill="white"/>
<path d="M162.502 0.00390625H160.165V10.3215H162.502V0.00390625Z" fill="white"/>
<path d="M178.856 25.8833C176.723 25.8833 175.602 24.1637 175.602 21.9503L175.703 14.6884C175.708 14.249 175.624 13.813 175.456 13.4056C175.288 12.9983 175.039 12.6276 174.725 12.3151C174.41 12.0026 174.035 11.7544 173.622 11.5849C173.21 11.4155 172.767 11.328 172.319 11.3276H158.073C157.304 11.3276 156.573 10.5347 156.239 10.067L154.807 7.40625H152.169L154.201 11.1824L154.257 11.2754C154.681 11.8862 155.25 12.3867 155.915 12.7338C156.58 13.0809 157.32 13.2642 158.073 13.268H160.123V27.5884H162.46V13.2854H171.038C171.344 13.2854 171.646 13.3447 171.928 13.4599C172.21 13.5752 172.466 13.744 172.681 13.9567C172.896 14.1695 173.067 14.4219 173.182 14.6995C173.298 14.9772 173.356 15.2745 173.354 15.5744L173.266 21.8922C173.266 25.6683 175.233 27.6029 179.096 27.6029H203.647V25.8833H178.856Z" fill="white"/>
<path d="M97.3188 11.2101L97.2833 17.7197C97.1591 20.1596 94.7365 19.9824 94.7365 19.9824L92.9617 14.3443H90.6248L92.1452 20.0028C92.216 20.34 92.3598 20.6583 92.5671 20.9359C92.7743 21.2136 93.0401 21.4442 93.3462 21.612C93.716 21.8124 94.9761 21.9025 95.192 21.8269C96.6444 21.6991 99.4604 20.5547 99.629 16.9383V10.7483C99.6294 10.3788 99.5556 10.0128 99.4119 9.67137C99.2682 9.32989 99.0573 9.01958 98.7914 8.75817C98.5255 8.49677 98.2097 8.28939 97.8621 8.14791C97.5145 8.00642 97.1419 7.93359 96.7657 7.93359H88.8086V10.0628H96.1356C96.4469 10.0627 96.7456 10.1832 96.9671 10.3979C97.1886 10.6127 97.3149 10.9045 97.3188 11.2101Z" fill="white"/>
<path d="M136.719 24.2371C136.719 25.0127 135.705 25.6692 134.513 25.6692H125.047V27.5166L134.513 27.6182C137.006 27.6182 139.044 25.9538 139.056 23.906L139.192 0H136.855L136.719 24.2371Z" fill="white"/>
<path d="M181.9 19.9106H190.434V23.0012H192.771V19.9106H199.421V18.0748H192.771V15.3763H199.421V13.5405H192.771V10.5457H200.379C200.624 10.5457 200.859 10.6412 201.032 10.8112C201.205 10.9811 201.302 11.2117 201.302 11.452V22.2315C201.302 22.4639 201.006 22.6062 200.814 22.6062H200.518V24.1951H200.678C203.139 24.1951 203.594 23.7826 203.594 21.7493V11.0395C203.598 10.3967 203.343 9.77853 202.884 9.32018C202.425 8.86184 201.8 8.60065 201.145 8.59375H181.442C181.195 8.59375 180.951 8.64148 180.723 8.73421C180.496 8.82694 180.289 8.96285 180.115 9.13417C179.94 9.30549 179.802 9.50885 179.708 9.73262C179.614 9.95638 179.566 10.1962 179.566 10.4383V23.0012H181.9V19.9106ZM181.9 11.3765C181.9 11.2671 181.922 11.1589 181.965 11.0579C182.008 10.9569 182.07 10.8652 182.149 10.788C182.228 10.7108 182.322 10.6497 182.425 10.6081C182.528 10.5666 182.638 10.5454 182.749 10.5457H190.44V13.5405H181.9V11.3765ZM181.9 15.3763H190.434V18.0748H181.9V15.3763Z" fill="white"/>
<path d="M191.286 5.02814C190.191 5.33151 189.031 5.31435 187.946 4.97876V6.82908C188.654 7.02115 189.386 7.11885 190.12 7.11955C190.903 7.11945 191.682 7.00891 192.433 6.79132L192.502 6.77099L200.018 3.55544C200.415 3.38507 200.74 3.08449 200.936 2.70511C201.132 2.32574 201.188 1.89114 201.095 1.47565C201.009 1.0572 200.777 0.681102 200.44 0.411868C200.103 0.142634 199.68 -0.00296292 199.246 4.57098e-05H180.314V1.95784H198.935L191.286 5.02814Z" fill="white"/>
<path d="M122.602 6.52113V1.02247H120.235V5.86176C120.237 5.93201 120.223 6.00177 120.196 6.06684C120.169 6.13191 120.129 6.19093 120.078 6.24034C120.027 6.28975 119.967 6.32852 119.9 6.35432C119.834 6.38011 119.763 6.39239 119.691 6.39042H113.988V0H111.622V6.39042H105.374V1.02247H103.008V8.2175H121.043C121.26 8.21182 121.474 8.16279 121.672 8.0734C121.87 7.98401 122.047 7.85611 122.193 7.69747C122.338 7.53884 122.45 7.35276 122.52 7.15055C122.591 6.94834 122.618 6.7342 122.602 6.52113V6.52113Z" fill="white"/>
<path d="M121.012 16.3911L112.945 16.4288L115.826 13.2075L123.177 13.161V11.3281H102.556V13.1755L113.066 13.222L110.277 16.4434L104.21 16.4056C103.963 16.4041 103.719 16.4503 103.491 16.5416C103.262 16.6329 103.055 16.7676 102.879 16.9378C102.704 17.108 102.565 17.3105 102.469 17.5337C102.374 17.7569 102.324 17.9964 102.323 18.2385L102.27 27.7312H104.621L104.677 19.1709C104.679 18.9516 104.769 18.7418 104.927 18.5872C105.086 18.4327 105.3 18.346 105.523 18.346H108.777V27.1677H111.144V18.346H114.474V27.1677H116.841V18.346H120.237C120.481 18.346 120.715 18.4411 120.888 18.6104C121.061 18.7797 121.159 19.0095 121.159 19.2493V25.7821C121.159 26.0174 120.896 26.1597 120.698 26.1597H120.417V27.7602H120.577C123.056 27.7602 123.502 27.3448 123.502 25.2999V18.8223C123.502 18.502 123.437 18.1848 123.312 17.889C123.186 17.5933 123.002 17.3248 122.771 17.0989C122.54 16.873 122.265 16.6942 121.963 16.5728C121.661 16.4513 121.338 16.3896 121.012 16.3911V16.3911Z" fill="white"/>
<path d="M175.241 6.34211L172.144 1.03516L169.506 1.04678L172.585 6.34211H175.241Z" fill="white"/>
<path d="M141.645 7.42668L144.724 12.722H147.38L144.28 7.41797L141.645 7.42668Z" fill="white"/>
<path d="M135.968 12.722L132.868 7.41797L130.232 7.42668L133.312 12.722H135.968Z" fill="white"/>
<path d="M97.4674 5.4155L94.2313 1.03516L91.5957 1.04678L94.8111 5.4155H97.4674Z" fill="white"/>
<path d="M93.4075 36.6758C97.4008 36.6758 99.9654 39.0548 99.9654 42.7525C99.9654 46.4502 97.4008 48.8263 93.4075 48.8263H88.6895V37.1812C88.6895 37.0487 88.7431 36.9216 88.8385 36.8279C88.9339 36.7342 89.0633 36.6816 89.1982 36.6816L93.4075 36.6758ZM90.2424 38.1281V47.3768H93.4075C96.6613 47.3768 98.3297 45.5033 98.3297 42.7525C98.3297 40.0017 96.6495 38.1252 93.4075 38.1252L90.2424 38.1281Z" fill="white"/>
<path d="M109.241 45.3719C109.241 47.8613 107.419 49 105.414 49C103.408 49 101.568 47.8613 101.568 45.3719V40.582H103.018V45.2296C103.018 46.9144 104.035 47.6609 105.405 47.6609C106.774 47.6609 107.771 46.9144 107.771 45.2296V40.582H108.712C108.779 40.582 108.845 40.595 108.907 40.6201C108.968 40.6452 109.025 40.682 109.072 40.7284C109.119 40.7748 109.156 40.8298 109.182 40.8905C109.208 40.9511 109.221 41.016 109.221 41.0816L109.241 45.3719Z" fill="white"/>
<path d="M119.296 48.8266H117.847V47.7257C117.483 48.1428 117.028 48.4739 116.516 48.6947C116.004 48.9154 115.448 49.0201 114.889 49.0009C112.522 49.0009 110.691 47.1942 110.691 44.7048C110.691 42.2155 112.528 40.4087 114.889 40.4087C115.449 40.3884 116.006 40.4935 116.519 40.7159C117.031 40.9384 117.485 41.2724 117.847 41.6926V41.0826C117.847 41.017 117.86 40.952 117.886 40.8914C117.911 40.8308 117.949 40.7757 117.996 40.7293C118.043 40.6829 118.099 40.6461 118.161 40.621C118.223 40.5959 118.289 40.583 118.356 40.583H119.296V48.8266ZM112.165 44.7048C112.165 46.3431 113.33 47.6735 115.054 47.6735C116.779 47.6735 117.936 46.3954 117.936 44.7048C117.936 43.0143 116.752 41.7449 115.054 41.7449C113.292 41.7449 112.165 43.0636 112.165 44.7048Z" fill="white"/>
<path d="M129.147 43.704V48.825H127.697V44.1774C127.697 42.6583 126.848 41.7636 125.39 41.7636C125.06 41.7504 124.73 41.8048 124.422 41.9233C124.114 42.0419 123.834 42.222 123.601 42.4522C123.368 42.6824 123.186 42.9578 123.066 43.2608C122.947 43.5638 122.893 43.8878 122.908 44.2123V48.8366H121.468V40.5814H122.391C122.526 40.5814 122.655 40.634 122.75 40.7277C122.846 40.8214 122.899 40.9485 122.899 41.081V41.6619C123.223 41.2543 123.642 40.9283 124.12 40.7111C124.598 40.4939 125.121 40.3916 125.647 40.4129C127.715 40.4071 129.147 41.7258 129.147 43.704Z" fill="white"/>
<path d="M137.737 41.7555L132.687 47.5418H137.938V48.8257H130.771V47.7916L136.003 41.8746H130.921V40.582H137.858V41.4302C137.857 41.5491 137.814 41.664 137.737 41.7555V41.7555Z" fill="white"/>
<path d="M141.098 41.6488C141.42 41.2423 141.837 40.9176 142.314 40.7018C142.79 40.486 143.313 40.3854 143.837 40.4085C145.908 40.4085 147.336 41.7272 147.336 43.7054V48.8264H145.887V44.1788C145.887 42.6596 145.038 41.765 143.58 41.765C143.249 41.7518 142.919 41.8062 142.611 41.9247C142.303 42.0432 142.024 42.2233 141.79 42.4536C141.557 42.6838 141.375 42.9592 141.256 43.2622C141.137 43.5652 141.083 43.8892 141.098 44.2137V48.838H139.657V36.3477H140.589C140.656 36.3477 140.722 36.3606 140.784 36.3857C140.845 36.4108 140.902 36.4476 140.949 36.494C140.996 36.5404 141.033 36.5955 141.059 36.6561C141.085 36.7167 141.098 36.7817 141.098 36.8473V41.6488Z" fill="white"/>
<path d="M157.662 44.7024C157.662 47.1481 155.76 48.9985 153.225 48.9985C150.69 48.9985 148.788 47.1481 148.788 44.7024C148.788 42.2566 150.681 40.4062 153.225 40.4062C155.769 40.4062 157.662 42.2537 157.662 44.7024ZM150.267 44.7024C150.278 45.2744 150.461 45.8305 150.793 46.3008C151.124 46.7712 151.59 47.1349 152.132 47.3463C152.673 47.5577 153.266 47.6074 153.836 47.4892C154.406 47.371 154.928 47.0901 155.336 46.6817C155.744 46.2734 156.02 45.7558 156.13 45.1939C156.239 44.632 156.178 44.0508 155.952 43.5232C155.727 42.9956 155.348 42.5452 154.863 42.2284C154.377 41.9116 153.808 41.7425 153.225 41.7424C152.83 41.7355 152.437 41.8077 152.072 41.9547C151.706 42.1017 151.374 42.3204 151.098 42.5974C150.821 42.8744 150.604 43.2039 150.461 43.5659C150.319 43.9278 150.253 44.3145 150.267 44.7024V44.7024Z" fill="white"/>
<path d="M166.767 45.3719C166.767 47.8613 164.948 49 162.942 49C160.937 49 159.097 47.8613 159.097 45.3719V40.582H160.546V45.2296C160.546 46.9144 161.564 47.6609 162.933 47.6609C164.303 47.6609 165.3 46.9144 165.3 45.2296V40.582H166.24C166.307 40.582 166.373 40.595 166.435 40.6201C166.497 40.6452 166.553 40.682 166.6 40.7284C166.647 40.7748 166.685 40.8298 166.71 40.8905C166.736 40.9511 166.749 41.016 166.749 41.0816L166.767 45.3719Z" fill="white"/>
<path d="M174.479 41.9885H181.779V36.6758H182.826C182.961 36.6758 183.091 36.7284 183.186 36.8221C183.281 36.9158 183.335 37.0429 183.335 37.1754V48.8263H181.779V43.4293H174.479V48.8263H172.923V36.6758H174.479V41.9885Z" fill="white"/>
<path d="M193.319 45.3719C193.319 47.8613 191.496 49 189.491 49C187.485 49 185.646 47.8613 185.646 45.3719V40.582H187.095V45.2296C187.095 46.9144 188.11 47.6609 189.479 47.6609C190.849 47.6609 191.846 46.9144 191.846 45.2296V40.582H192.786C192.921 40.582 193.051 40.6347 193.146 40.7284C193.241 40.8221 193.295 40.9491 193.295 41.0816L193.319 45.3719Z" fill="white"/>
<path d="M203.999 44.7045C203.999 47.1938 202.154 49.0006 199.802 49.0006C199.243 49.0217 198.686 48.9179 198.174 48.697C197.661 48.4761 197.207 48.1439 196.844 47.7254V48.3267C196.844 48.4592 196.79 48.5863 196.695 48.68C196.599 48.7737 196.47 48.8263 196.335 48.8263H195.403V36.3359H196.844V41.6836C197.206 41.2646 197.661 40.932 198.173 40.7111C198.686 40.4901 199.243 40.3866 199.802 40.4084C202.154 40.4084 203.999 42.2122 203.999 44.7045ZM196.752 44.7045C196.752 46.395 197.935 47.6731 199.633 47.6731C201.376 47.6731 202.514 46.3428 202.514 44.7045C202.514 43.0662 201.349 41.7446 199.633 41.7446C197.918 41.7446 196.752 43.0197 196.752 44.7045Z" fill="white"/>
</g>
<defs>
<clipPath id="clip0_1610_18293">
<rect width="204" height="49" fill="white"/>
</clipPath>
</defs>
</svg>
