<svg width="289" height="67" viewBox="0 0 289 67" fill="none" xmlns="http://www.w3.org/2000/svg">
<path d="M0 64.6079L30.5551 59.379V54.2344L0 59.2103V64.6079Z" fill="white"/>
<path d="M21.685 26.9902L21.5954 42.5927C21.237 48.4963 15.1439 48.0746 15.1439 48.0746L10.6637 34.4963H4.74976L8.60275 48.159C8.96117 49.8457 10.0364 51.1951 11.6493 52.0385C12.5453 52.5445 15.7711 52.7132 16.3087 52.5445C19.9825 52.2072 27.0613 49.5084 27.5093 40.7373V25.8095C27.5093 22.0987 24.2835 19.0625 20.3409 19.0625H0.269531V24.2071H18.6385C20.3409 24.2071 21.685 25.3878 21.685 26.9902Z" fill="white"/>
<path d="M85.1968 15.6868V2.44579H79.2829V14.0844C79.2829 14.6747 78.8349 15.3494 77.8492 15.3494H63.5125V0H57.5986V15.3494H41.9178V2.44579H36.0039V19.735H81.2542C82.6879 19.735 85.1968 18.7229 85.1968 15.6868Z" fill="white"/>
<path d="M81.2709 39.4789L61.0203 39.5633L68.2782 31.8042L86.7368 31.7199V27.25H34.8558V31.7199L61.2891 31.8042L54.2999 39.5633L39.0672 39.4789C36.4686 39.4789 34.3181 41.4187 34.3181 43.8645L34.2285 66.72H40.1424L40.3216 46.1416C40.3216 45.0452 41.3073 44.1175 42.4721 44.1175H50.7157V65.3706H56.6296V44.2019H65.0525V65.4549H70.9664V44.2019H79.4788C80.7332 44.2019 81.8085 45.2139 81.8085 46.3946V62.1658C81.8085 62.7561 81.1813 63.0935 80.6436 63.0935H79.9268V66.973H80.2852C86.5575 66.973 87.6328 65.9609 87.6328 61.0694V45.2982C87.4536 42.0934 84.6758 39.4789 81.2709 39.4789Z" fill="white"/>
<path d="M22.0506 12.9836L13.8966 2.44141H7.35547L15.4199 12.9836H22.0506Z" fill="white"/>
<path d="M128.142 1.28125H122.228V10.221H106.01V15.2813H122.228V66.7272H128.142V15.2813H144.54V10.221H128.142V1.28125Z" fill="white"/>
<path d="M176.166 15.264L183.872 25.3845H190.592L183.066 15.1797L176.166 15.264Z" fill="white"/>
<path d="M162.272 15.264L155.372 15.1797L147.846 25.3845H154.566L162.272 15.264Z" fill="white"/>
<path d="M189.144 7.52223H172.208L170.416 1.28125H163.606L165.398 7.52223H149.27V12.6668H189.144V7.52223Z" fill="white"/>
<path d="M109.502 58.0352C109.502 58.6255 108.875 58.9629 108.337 58.9629H90.5059V64.5292H107.979C114.251 64.5292 115.326 63.5171 115.326 58.6255V19.3242H109.412L109.502 58.0352Z" fill="white"/>
<path d="M140.865 58.0352V19.3242H134.951V58.5412C134.951 63.4328 136.116 64.4448 142.299 64.4448H142.657V58.8785H142.03C141.492 58.9629 140.865 58.5412 140.865 58.0352Z" fill="white"/>
<path d="M246.771 59.6041C246.771 59.6041 245.427 60.7005 244.71 60.6161H244.621L237.9 60.7005V65.8451L244.442 65.7607C247.13 65.8451 249.639 64.6643 251.162 62.7246L266.036 45.9414L258.689 46.0257L246.771 59.6041Z" fill="white"/>
<path d="M229.206 37.1914L226.07 41.9143H282.521V57.8541C282.521 59.3722 281.356 60.7216 280.012 60.7216H264.511V65.8662H280.012C284.672 65.8662 288.435 62.071 288.435 57.4324V37.1914H229.206V37.1914Z" fill="white"/>
<path d="M226.077 33.0801C226.704 32.068 227.869 31.4777 229.123 31.4777H278.674C283.155 31.4777 286.739 28.1042 286.739 23.8873V2.29688H211.202V26.3331H217.116V19.6704H275.807V14.5258H217.116V7.35713H280.825V24.309C280.825 25.4054 279.839 26.3331 278.674 26.3331H227.062C225.001 26.3331 223.03 27.3451 221.955 29.0319L213.89 41.4295C213.442 41.9355 212.815 42.2729 212.009 42.1885H211.919L199.912 42.2729V47.4175L211.74 47.3331C214.518 47.4175 217.027 46.2367 218.55 44.2126L219.535 42.7789L223.299 37.2126L226.077 33.0801Z" fill="white"/>
<path d="M182.616 28.2383H175.806L168.458 41.0576L160.931 28.2383H154.121L164.695 46.6239L157.078 60.2022C156.63 60.7926 155.913 61.0456 155.197 61.0456H155.107L148.387 61.1299V66.2745L155.376 66.1902C158.064 66.2745 161.2 65.3468 162.186 63.0697L182.616 28.2383Z" fill="white"/>
<path d="M231.895 46.1273L219.888 59.7057L219.709 59.8743C219.261 60.4647 218.544 60.7177 217.827 60.7177H217.737L180.91 60.802H180.82C180.014 60.802 179.297 60.549 178.939 59.9587L174.19 50.4285L170.605 56.0791L174.19 62.8261C175.713 64.8502 178.222 65.9466 180.82 65.9466C180.91 65.9466 181 65.9466 181.089 65.9466L217.737 65.8623C220.426 65.9466 222.934 64.7659 224.458 62.8261L239.332 46.043L231.895 46.1273Z" fill="white"/>
</svg>
