<svg xmlns="http://www.w3.org/2000/svg" viewBox="0 0 1023 1023"><defs><style>.cls-1{fill:none;}.cls-2{fill:#fff;}</style></defs><g id="图层_2" data-name="图层 2"><g id="图层_1-2" data-name="图层 1"><rect class="cls-1" width="1023" height="1023"/><path class="cls-2" d="M570.65,260.73c-6.43-4.83-17.59-6.34-24.82-4L181.92,398.4c-7.15,3.21-13.57,11.25-13.57,19.19V853.82h-28a28.84,28.84,0,0,0,0,57.68H675.47a14.34,14.34,0,0,0,14.37-14.37V368c0-8-4.82-18.39-11.16-23.21l-108-84ZM493.06,688.21c0,8-6.42,16-13.57,17.59L274.77,755.44c-7.95,1.6-13.57-3.22-13.57-11.16V723.47c0-8,6.43-16.07,13.57-17.59l204.72-49.73c8-1.6,13.57,3.22,13.57,11.16Zm0-98.48c0,7.94-6.42,16-13.57,17.59L274.77,657c-7.95,1.61-13.57-3.22-13.57-11.25v-20.8c0-8,6.43-16,13.57-17.59l204.72-49.64c8-1.61,13.57,3.21,13.57,11.16Zm0-99.28c0,8-6.42,16-13.57,17.59L274.77,557.68c-7.95,1.6-13.57-3.22-13.57-11.25V525.62c0-8,6.43-16,13.57-17.58L479.49,459.2c8-1.61,13.57,3.21,13.57,11.16Zm389.54,365a22.33,22.33,0,0,0-7.23.8c-1.61-.8-3.22-.8-5.63-.8h-52c-7.95,0-14.37-6.43-14.37-13.57V219.12c0-8-4.82-17.59-11.25-22.41L682.61,116.63c-6.43-4.83-17.59-6.43-24.82-4L323.52,203.05C316.29,205.46,310,213.5,310,221.44v65.62c0,15.18,12.85,28,28.83,28s28.75-12.77,28.75-28V258.23c1.61-6.43,6.43-13.57,13.57-15.18l266.33-68.84c7.23-2.41,18.39-.8,24.82,4l63.21,45.62c6.43,4.82,11.25,14.38,11.25,22.41V897c0,8,6.43,13.66,14.38,13.66H870.64a10.13,10.13,0,0,0,4.82-.81,22.07,22.07,0,0,0,7.23.81c16,0,28.75-12.86,28.75-28C911.35,868.29,898.58,855.43,882.6,855.43Z"/></g></g></svg>