<svg xmlns="http://www.w3.org/2000/svg" viewBox="0 0 1100.11 347.73"><defs><style>.cls-1{fill:#fff;}</style></defs><g id="图层_2" data-name="图层 2"><g id="图层_1-2" data-name="图层 1"><path class="cls-1" d="M104,.56v34.1h69.14V60.43H104v47.82h28.54V79h26.14v29.29h22.06V134H70.62a107,107,0,0,1-4.54,12.79q-2.68,6.31-5.65,12.42H166.27q-7.23,22.25-15,40.32a239,239,0,0,1-16.86,32.53l46.34-6.86L184.06,251l-60.24,9.08V306.4a38.88,38.88,0,0,1-3.24,15.75A40.9,40.9,0,0,1,111.77,335a42.36,42.36,0,0,1-13.16,8.71A41.15,41.15,0,0,1,82.3,347H48.93V321.23H82.3a15.06,15.06,0,0,0,10.84-4.17A14.12,14.12,0,0,0,97.5,306.4V264L9.08,277.3l-3.33-26,92.49-13.53a229.8,229.8,0,0,0,18.54-26.42,176.59,176.59,0,0,0,13-26.41H44.12q-6.12,8-13,15.57A197.27,197.27,0,0,1,16.68,215L0,195.18a183.57,183.57,0,0,0,26-28.82A136.19,136.19,0,0,0,43.56,134H1.85V108.25H78.22V60.43H9.45V34.66H78.22V.56ZM207.23,83.23l59,104.72A572.64,572.64,0,0,0,285.64,133q8.89-29.56,16.5-65.34H183.69l9.82-63L219.84,8.9l-5.38,33H345.14V67.66H327.9a793.94,793.94,0,0,1-20.67,81.46,667.76,667.76,0,0,1-25.11,67.38l66,117.15-22.42,13L268,244.12a393.62,393.62,0,0,1-36.61,57.46,433.12,433.12,0,0,1-41.24,46.15L172,329.57a434.27,434.27,0,0,0,42.73-49.12q20.3-27.06,38.09-63.21l-68-121.41Z"/><path class="cls-1" d="M695.84,71.55V85.82a46.34,46.34,0,0,1-3.8,18.72,47.8,47.8,0,0,1-10.29,15.11,49.79,49.79,0,0,1-15.2,10.19,45.76,45.76,0,0,1-18.53,3.8H418l22.43-79H385.36V28.92H540.88V0h26V28.92H722.34V54.68h-255l-15.2,53.2H648a21,21,0,0,0,15.75-6.49,21.54,21.54,0,0,0,6.3-15.57V71.55ZM671.56,347.73V309.18H435.78v38.55H410V200.19a46.57,46.57,0,0,1,3.8-18.63,48.46,48.46,0,0,1,10.2-15.2,45.87,45.87,0,0,1,15.2-10,48.57,48.57,0,0,1,18.63-3.61H649.5a48.57,48.57,0,0,1,18.63,3.61,46.08,46.08,0,0,1,15.2,10,48.26,48.26,0,0,1,10.19,15.2,46.57,46.57,0,0,1,3.8,18.63V347.73ZM435.78,219.09H671.56v-18.9a20.84,20.84,0,0,0-6.49-15.2,21.27,21.27,0,0,0-15.57-6.49H457.84A21.24,21.24,0,0,0,442.27,185a20.8,20.8,0,0,0-6.49,15.2Zm0,64.14H671.56V244.86H435.78Z"/><path class="cls-1" d="M766.83,345.51,789.26,49.12a59,59,0,0,1,5.1-17.7,53.58,53.58,0,0,1,10.19-15A47.24,47.24,0,0,1,819.19,6.21a43.14,43.14,0,0,1,17.89-3.8h217.06a41,41,0,0,1,28.91,12,41,41,0,0,1,8.53,12.88A39.84,39.84,0,0,1,1094.73,43V68.4a39.84,39.84,0,0,1-3.15,15.75,42.77,42.77,0,0,1-8.71,13.16,39.15,39.15,0,0,1-13,8.9,39.84,39.84,0,0,1-15.75,3.15H810.39L808.54,134h244.11a46.57,46.57,0,0,1,18.63,3.8,47.69,47.69,0,0,1,15.2,10.29,47.19,47.19,0,0,1,10,15.2,47.91,47.91,0,0,1,3.62,18.54V299.17a47.13,47.13,0,0,1-28.83,44,46.57,46.57,0,0,1-18.63,3.8h-41V321.23h41a20.83,20.83,0,0,0,15.2-6.49,21.2,21.2,0,0,0,6.49-15.57V181.84A22,22,0,0,0,1052.65,160h-246L792.6,347.36ZM812.43,83.6h241.71a14.26,14.26,0,0,0,10.47-4.36A14.73,14.73,0,0,0,1069,68.4V43a14.12,14.12,0,0,0-4.36-10.65,14.61,14.61,0,0,0-10.47-4.18H837.08a19.94,19.94,0,0,0-15,6.68A25.75,25.75,0,0,0,815,51ZM874.34,311a38.71,38.71,0,0,1-15.85-3.24,43.73,43.73,0,0,1-13.07-8.9,41.41,41.41,0,0,1-9-13.07,38.88,38.88,0,0,1-3.24-15.75V230.59a39,39,0,0,1,3.24-15.76,40.32,40.32,0,0,1,9-13,44.59,44.59,0,0,1,13.07-8.81,38.71,38.71,0,0,1,15.85-3.24H987.78a38.88,38.88,0,0,1,15.75,3.24,40.85,40.85,0,0,1,12.89,8.81,42.91,42.91,0,0,1,8.71,13,39,39,0,0,1,3.24,15.76v39.48a38.88,38.88,0,0,1-3.24,15.75,44.14,44.14,0,0,1-8.71,13.07,40.13,40.13,0,0,1-12.89,8.9A38.88,38.88,0,0,1,987.78,311Zm113.44-25.76a14,14,0,0,0,10.66-4.45,15.16,15.16,0,0,0,4.17-10.75V230.59a14.28,14.28,0,0,0-14.83-14.83H874.34a15,15,0,0,0-10.84,4.17,14.09,14.09,0,0,0-4.36,10.66v39.48a14.79,14.79,0,0,0,4.36,10.75,14.52,14.52,0,0,0,10.84,4.45Z"/></g></g></svg>