<svg xmlns="http://www.w3.org/2000/svg" width="103.144" height="69.816" viewBox="0 0 103.144 69.816">
  <path id="dh_blue" d="M610.978,1002.418h-44.2l-4.061,5.667,36.056,0c12.894,0,16.186,10.184,12.579,15.079l-5.814,7.9H585.914c-3.727,0-2.6-1.531-1.979-2.372,1.229-1.664,3.244-4.49,4.448-6.123,1.186-1.616,1.216-2.529-1.211-2.529H554.143l-18.764,26.18a16.435,16.435,0,0,0,13.358,26.009H588.4A37.471,37.471,0,0,0,618.7,1056.8l12.272-18.394c9.891-15.386,3.278-35.985-20-35.985m-34.026,47.6H546.9a2.756,2.756,0,0,1-2.22-4.39l14.456-19.643h15.017c2.426,0,2.4.919,1.21,2.529l-4.478,6.1c-.623.841-1.748,2.372,1.979,2.372h28.7c-2.438,3.352-10.376,13.033-24.608,13.033" transform="translate(-532.273 -1002.418)" fill="#0b2ae0"/>
</svg>
