<svg xmlns="http://www.w3.org/2000/svg" viewBox="0 0 1105.11 348.85"><defs><style>.cls-1{fill:#fff;}</style></defs><g id="图层_2" data-name="图层 2"><g id="图层_1-2" data-name="图层 1"><path class="cls-1" d="M43.74,93.05v15.57q0,67.29-5.37,126.14T25.76,342L0,337.91q7.23-48.56,12.33-106.86t5.09-122.43V93.05ZM95.27,0V48.75h63V74.51h-63V347.73H69.51V74.51H6.12V48.75H69.51V0ZM147,90.83V342.36H121V90.83Zm24.28,255.42L182.21,53.94a47.48,47.48,0,0,1,4.17-18.17A43.51,43.51,0,0,1,196.67,21.5a47.92,47.92,0,0,1,15-9.27A50,50,0,0,1,230,8.9h31.88a49.45,49.45,0,0,1,18.72,3.52,46.09,46.09,0,0,1,15.29,10,48.27,48.27,0,0,1,10.39,15.2,46.38,46.38,0,0,1,3.8,18.72V306.77a14.43,14.43,0,0,0,4.17,10.66,14,14,0,0,0,10.28,4.17h20.58v25.76H324.56a39.78,39.78,0,0,1-16.12-3.24,39.32,39.32,0,0,1-12.7-8.71,43.35,43.35,0,0,1-8.53-12.89A38.88,38.88,0,0,1,284,306.77V56.35a21.69,21.69,0,0,0-22.06-21.69H230a21.39,21.39,0,0,0-14.92,5.66A21.87,21.87,0,0,0,208,54.68L197,347Z"/><path class="cls-1" d="M426.88,93.05v15.57q0,67.29-5.1,126.14t-12.69,107.6l-25.77-4.08q7.23-48.93,12.51-107t5.29-122.62V93.05ZM468.22.37V48.75h52.45V74.51H468.22V347.36H442.45V74.51H389.62V48.75h52.83V.37ZM512.7,91.2V342.36H486.94V91.2ZM629.29,323.08h47.46q7.59,0,13.06-6.39A23.28,23.28,0,0,0,695.28,301V85.08q0-9.45-5.47-15.76T676.75,63H533.65L554.78,3.15l24.65,8.34L570,37.26H676.75A40.37,40.37,0,0,1,694,41.06a43,43,0,0,1,14,10.28,52.88,52.88,0,0,1,9.45,15.2,47.91,47.91,0,0,1,3.62,18.54V301a47.64,47.64,0,0,1-3.62,18.63A53.09,53.09,0,0,1,708,334.76a43.22,43.22,0,0,1-14,10.29,40.37,40.37,0,0,1-17.23,3.8H629.29Zm-17-233L572.39,251.35H633a12,12,0,0,0,9.18-4.17,15.24,15.24,0,0,0,3.8-10.66V182.21h25.76v54.31a40.85,40.85,0,0,1-3.06,15.75,41.78,41.78,0,0,1-8.34,13A38.44,38.44,0,0,1,648,274a36.33,36.33,0,0,1-15,3.15H539.21L587,84Z"/><path class="cls-1" d="M758.49,307.88,881.57,289,886,314.74,762.75,333.65ZM836.71,13.35V53.57h47.82V79.33h-121V53.57H811V13.35Zm-33.36,82.3V274.52h-26V95.65Zm66.35,0V274.52H843.94V95.65ZM891,139.39h214.09v25.77h-89.9L1008,189.44h55a38.34,38.34,0,0,1,15.67,3.24,44.54,44.54,0,0,1,13.06,8.81,40.6,40.6,0,0,1,9,12.88A38.26,38.26,0,0,1,1104,230v77.85q0,17.06-11.77,28.64a42.35,42.35,0,0,1-28.83,12.33h-11.49V323.08H1063a16.3,16.3,0,0,0,10.66-4.54,14.12,14.12,0,0,0,4.36-10.66V230a13.91,13.91,0,0,0-4.36-10.47,14.83,14.83,0,0,0-10.66-4.17h-21.68V347.73h-25.77V215.39H980.92V347.73H955.15V215.39H935A14.26,14.26,0,0,0,920.31,230V348.47H894.36V230a38.25,38.25,0,0,1,3.24-15.66,43.06,43.06,0,0,1,8.71-12.88,40.74,40.74,0,0,1,12.89-8.81A38.88,38.88,0,0,1,935,189.44h46l7.6-24.28H891ZM1011.32.74V91.57h48.19a14.28,14.28,0,0,0,14.83-14.83V19.46h25.77V76.74a38.89,38.89,0,0,1-3.25,15.75,41,41,0,0,1-21.59,21.6,39,39,0,0,1-15.76,3.24H937a38.93,38.93,0,0,1-15.76-3.24,45.3,45.3,0,0,1-13.16-8.71,39.35,39.35,0,0,1-9-12.89,38.88,38.88,0,0,1-3.24-15.75V19.46h25.95V76.74a14.09,14.09,0,0,0,4.36,10.66A15,15,0,0,0,937,91.57h48.56V.74Z"/></g></g></svg>