<svg xmlns="http://www.w3.org/2000/svg" viewBox="0 0 1023 1023"><defs><style>.cls-1{fill:none;}.cls-2{fill:#fff;}</style></defs><g id="图层_2" data-name="图层 2"><g id="图层_1-2" data-name="图层 1"><rect class="cls-1" width="1023" height="1023"/><path class="cls-2" d="M903.54,872.53H877.85A46.7,46.7,0,0,0,879.57,860V437.5a46.91,46.91,0,0,0-46.85-46.85H603.58V327.92a29.14,29.14,0,0,0-10.23-18L412.94,160.49v-1H366L184,309.92a29.13,29.13,0,0,0-10.59,22.49v22.38l-.48-.14V872.53H119.46A19.48,19.48,0,0,0,100,892h0a19.48,19.48,0,0,0,19.48,19.49H903.54A19.48,19.48,0,0,0,923,892h0A19.48,19.48,0,0,0,903.54,872.53ZM603.58,440h226.6V857.45H603.58ZM385.27,339.71a82.49,82.49,0,1,1-82.49,82.49A82.58,82.58,0,0,1,385.27,339.71ZM311.73,840.3h.19V714.23a69.12,69.12,0,0,1,69.12-68h20.43a69.14,69.14,0,0,1,69.14,69.13V872.53H311.73Z"/><path class="cls-2" d="M385.27,471.54a49.35,49.35,0,1,0-49.35-49.34A49.39,49.39,0,0,0,385.27,471.54Z"/><path class="cls-2" d="M739.73,531.25h-57.2c-13.11,0-23.74,8.69-23.74,19.42s10.63,19.41,23.74,19.41h57.2c13.11,0,23.74-8.69,23.74-19.41S752.84,531.25,739.73,531.25Z"/><path class="cls-2" d="M739.73,629.1h-57.2c-13.11,0-23.74,8.69-23.74,19.41s10.63,19.41,23.74,19.41h57.2c13.11,0,23.74-8.69,23.74-19.41S752.84,629.1,739.73,629.1Z"/><path class="cls-2" d="M739.73,728.67h-57.2c-13.11,0-23.74,8.69-23.74,19.41s10.63,19.42,23.74,19.42h57.2c13.11,0,23.74-8.69,23.74-19.42S752.84,728.67,739.73,728.67Z"/></g></g></svg>