<svg xmlns="http://www.w3.org/2000/svg" viewBox="0 0 1023 1023"><defs><style>.cls-1{fill:none;}.cls-2{fill:#fff;}</style></defs><g id="图层_2" data-name="图层 2"><g id="图层_1-2" data-name="图层 1"><rect class="cls-1" width="1023" height="1023"/><path class="cls-2" d="M289.84,580.63H243.17a19.41,19.41,0,0,0,0,38.82h46.67a19.41,19.41,0,0,0,0-38.82Z"/><path class="cls-2" d="M289.84,673H243.17a19.42,19.42,0,0,0,0,38.83h46.67a19.42,19.42,0,0,0,0-38.83Z"/><path class="cls-2" d="M786.82,580.63H740.15a19.41,19.41,0,0,0,0,38.82h46.67a19.41,19.41,0,0,0,0-38.82Z"/><path class="cls-2" d="M889.74,890.63H856a41.14,41.14,0,0,0,1.62-11.45V490.68a41.43,41.43,0,0,0-41.44-41.4H723.54a41.17,41.17,0,0,0-14.11,2.46V430.86a26.38,26.38,0,0,0-9.56-20.34L536.55,275.26V203.49H710.77a30,30,0,0,0,30-30v-59a30,30,0,0,0-30-30H526.55a30.05,30.05,0,0,0-28.28,20h-1.72v167.8L329.33,410.52a26.35,26.35,0,0,0-9.6,20.36v20.26a41.56,41.56,0,0,0-12.34-1.86H214.13a41.41,41.41,0,0,0-40.75,41.4v389.2A41.11,41.11,0,0,0,175,890.63H133.25a18.94,18.94,0,1,0,0,37.88H444.93V890.63h.18V776.51A62.56,62.56,0,0,1,507.68,715h18.5a62.57,62.57,0,0,1,62.58,62.57v151h301a18.94,18.94,0,1,0,0-37.88Zm-570.44-.17H212.92V496.68a7.93,7.93,0,0,1,7.92-7.69h97.82l.64.05ZM511.5,586.82a74.67,74.67,0,1,1,74.66-74.66A74.74,74.74,0,0,1,511.5,586.82ZM817.85,890.46H709.13v-401a8,8,0,0,1,2.64-.45h98.12a8,8,0,0,1,8,7.93Zm-306.35-423a44.67,44.67,0,1,0,44.66,44.67A44.72,44.72,0,0,0,511.5,467.49Z"/><path class="cls-2" d="M786.82,673H740.15a19.42,19.42,0,0,0,0,38.83h46.67a19.42,19.42,0,0,0,0-38.83Z"/></g></g></svg>