<svg xmlns="http://www.w3.org/2000/svg" viewBox="0 0 1105.48 348.1"><defs><style>.cls-1{fill:#fff;}</style></defs><g id="图层_2" data-name="图层 2"><g id="图层_1-2" data-name="图层 1"><path class="cls-1" d="M0,215.39H186.47a264,264,0,0,0,31.61-31,254.53,254.53,0,0,0,24.55-33.55H42.45V124.93H284.71q-28.36,56.54-60.43,90.46h122v25.76h-142v58.39a45.74,45.74,0,0,1-3.8,18.63,49.49,49.49,0,0,1-10.29,15.11,46.52,46.52,0,0,1-15.2,10.1A47.9,47.9,0,0,1,156.44,347H106V321.23h50.41A21.24,21.24,0,0,0,172,314.74a20.79,20.79,0,0,0,6.49-15.2V241.15H0ZM310.85,8.9l-9.46,37.81a51.17,51.17,0,0,1,15.2,5.84,44.66,44.66,0,0,1,12.33,10.38,51.63,51.63,0,0,1,8.16,14,44.89,44.89,0,0,1,3.05,16.5v20.21H314.37V93.42a20.94,20.94,0,0,0-6.49-15.48,21.41,21.41,0,0,0-15.57-6.39H53.94a21.38,21.38,0,0,0-15.57,6.39,20.94,20.94,0,0,0-6.49,15.48v20.21H6.12V93.42a45.8,45.8,0,0,1,11-30.49A46.59,46.59,0,0,1,44.86,46.71L35.4,8.9l25-6.49L71.36,45.6h88.79V0H186.1V45.6h88.42l11.3-43.19Z"/><path class="cls-1" d="M418.36,90.46v15.2q0,66.72-3.8,126.5t-9.18,108.72l-25.76-3q5.37-48.93,9.17-108t3.8-124.28V90.46ZM463.58.56V48.75h51.53V74.51H463.58V348.1H437.63V74.51H386.84V48.75h50.79V.56ZM507.14,91.2V342.73H481.38V91.2ZM670.07,69.14l55.43,83.6-21.69,14.82L692.5,150.51Q681,173.13,669.24,193.24T645.42,231.7l79,100.09-20.57,15.94-74-94q-20.58,28-41.24,51.06t-42.36,42.91L528.83,329.2q21.69-20,42.91-43.75a603.75,603.75,0,0,0,41.8-52.64l-60.06-76.74c-1.73,2.11-3.37,4.14-4.91,6.12s-3.18,4-4.91,6.12L524.2,151.62a415,415,0,0,0,53.19-81l23.17,11.87q-7.23,14.08-15,27t-16.5,25.48l59.69,75.44a895.3,895.3,0,0,0,47.08-84.71L648.39,84ZM639.67,2V34.66H722V60.43H534.2V34.66h79.71V2Z"/><path class="cls-1" d="M758.86,307.14l123.08-18.91L886.39,314,763.12,332.91ZM837.08,12.6V52.83H884.9V78.59h-121V52.83h47.46V12.6ZM803.72,94.9V273.78h-26V94.9Zm66.36,0V273.78H844.31V94.9Zm21.31,43.75h214.09v25.76h-89.9l-7.23,24.29h55.05a38.34,38.34,0,0,1,15.67,3.24,44.7,44.7,0,0,1,13.06,8.8,41,41,0,0,1,9,12.89,38.25,38.25,0,0,1,3.24,15.66v77.85q0,17.06-11.77,28.64a42.29,42.29,0,0,1-28.82,12.32h-11.5V322.34h11.12a16.3,16.3,0,0,0,10.66-4.54,14.12,14.12,0,0,0,4.36-10.66V229.29a13.91,13.91,0,0,0-4.36-10.47,14.83,14.83,0,0,0-10.66-4.17h-21.68V347H1016V214.65H981.29V347H955.53V214.65H935.32a14.26,14.26,0,0,0-14.64,14.64V347.73H894.73V229.29A38.25,38.25,0,0,1,898,213.63a43.23,43.23,0,0,1,8.71-12.89,40.87,40.87,0,0,1,12.89-8.8,38.88,38.88,0,0,1,15.75-3.24h46l7.6-24.29h-97.5ZM1011.69,0V90.83h48.19A14.28,14.28,0,0,0,1074.71,76V18.72h25.77V76a38.89,38.89,0,0,1-3.25,15.75,41,41,0,0,1-21.59,21.6,39,39,0,0,1-15.76,3.24H937.36a39,39,0,0,1-15.76-3.24,45.3,45.3,0,0,1-13.16-8.71,39.5,39.5,0,0,1-9-12.89A38.88,38.88,0,0,1,896.21,76V18.72h25.95V76a14.1,14.1,0,0,0,4.36,10.66,15,15,0,0,0,10.84,4.17h48.56V0Z"/></g></g></svg>