<svg width="169" height="201" viewBox="0 0 169 201" fill="none" xmlns="http://www.w3.org/2000/svg">
<path d="M0.740723 165.097L18.4577 161.897V158.732L0.740723 161.759V165.097Z" fill="white"/>
<path d="M91.3402 125.243H87.9326V166.248H91.3402V125.243Z" fill="white"/>
<path d="M108.447 125.243H105.04V140.573H108.447V125.243Z" fill="white"/>
<path d="M132.312 163.693C129.204 163.693 127.569 161.138 127.569 157.847L127.719 147.063C127.725 146.411 127.601 145.764 127.356 145.16C127.111 144.556 126.748 144.006 126.288 143.542C125.829 143.079 125.283 142.711 124.681 142.46C124.078 142.209 123.432 142.08 122.78 142.08H102.047C100.896 142.08 99.8595 140.929 99.3645 140.204L97.2808 136.257H93.3667L96.2908 141.873L96.3713 142.011C96.9999 142.934 97.847 143.687 98.8373 144.203C99.8275 144.719 100.93 144.982 102.047 144.969H105.04V166.237H108.494V144.98H121.03C121.48 144.98 121.925 145.07 122.34 145.245C122.754 145.419 123.13 145.675 123.444 145.996C123.758 146.318 124.005 146.699 124.17 147.118C124.335 147.536 124.414 147.983 124.403 148.433L124.277 157.824C124.277 163.44 127.143 166.306 132.784 166.306H168.632V163.751L132.312 163.693Z" fill="white"/>
<path d="M13.3118 141.896V151.54C13.3007 152.009 13.1942 152.47 12.9988 152.897C12.8034 153.323 12.5232 153.705 12.1752 154.019C11.8273 154.334 11.4189 154.574 10.9751 154.726C10.5312 154.877 10.0611 154.937 9.59344 154.901L6.95718 146.522H3.50357L5.71389 154.935C5.82036 155.435 6.03263 155.906 6.33644 156.317C6.64025 156.728 7.02855 157.069 7.47523 157.317C8.34242 157.604 9.25857 157.714 10.169 157.64C11.961 157.454 13.6192 156.606 14.8198 155.264C16.0204 153.921 16.6772 152.179 16.6618 150.378V141.171C16.6633 140.622 16.5563 140.078 16.3468 139.57C16.1374 139.063 15.8296 138.602 15.4413 138.213C15.0529 137.825 14.5916 137.517 14.0839 137.308C13.5763 137.099 13.0322 136.992 12.483 136.993H0.901855V140.158H11.585C11.8128 140.158 12.0383 140.203 12.2485 140.291C12.4588 140.378 12.6496 140.506 12.8101 140.668C12.9706 140.829 13.0976 141.021 13.1837 141.232C13.2698 141.442 13.3133 141.668 13.3118 141.896Z" fill="white"/>
<path d="M70.8259 161.253C70.8259 162.404 69.3408 163.382 67.6025 163.382H53.7881V166.132L67.6025 166.282C71.2403 166.282 74.2219 163.808 74.2335 160.769L74.4176 125.254H70.964L70.8259 161.253Z" fill="white"/>
<path d="M136.755 154.82H149.246V159.423H152.699V154.82H162.416V152.046H152.699V148.03H162.416V145.302H152.699V140.86H163.809C164.166 140.86 164.508 141.002 164.761 141.254C165.014 141.507 165.155 141.849 165.155 142.207V158.261C165.155 158.606 164.73 158.825 164.442 158.825H164.027V161.184H164.211C167.803 161.184 168.459 160.563 168.459 157.547V141.62C168.461 141.145 168.368 140.674 168.187 140.235C168.006 139.796 167.74 139.397 167.404 139.061C167.068 138.725 166.669 138.459 166.23 138.278C165.791 138.097 165.32 138.004 164.845 138.006H136.065C135.338 138.006 134.641 138.294 134.127 138.808C133.613 139.322 133.325 140.018 133.325 140.745V159.412H136.778L136.755 154.82ZM136.755 142.16C136.758 141.833 136.891 141.52 137.123 141.289C137.356 141.058 137.671 140.929 137.999 140.929H149.246V145.371H136.755V142.16ZM136.755 148.099H149.246V152.046H136.755V148.099Z" fill="white"/>
<path d="M150.455 132.712C148.858 133.157 147.166 133.129 145.585 132.631V135.382C146.62 135.667 147.689 135.81 148.762 135.808C149.904 135.807 151.04 135.644 152.135 135.324H152.228L163.199 130.548C163.777 130.289 164.249 129.838 164.535 129.272C164.821 128.706 164.903 128.059 164.768 127.44C164.633 126.82 164.289 126.266 163.794 125.87C163.298 125.474 162.682 125.261 162.047 125.266H134.418V128.166H161.598L150.455 132.712Z" fill="white"/>
<path d="M50.2424 134.921V126.727H46.7888V133.909C46.7906 134.015 46.7704 134.12 46.7295 134.218C46.6886 134.316 46.6279 134.405 46.5511 134.478C46.4744 134.552 46.3833 134.609 46.2835 134.645C46.1838 134.682 46.0776 134.697 45.9715 134.691H37.6483V125.208H34.1947V134.783H25.0771V126.727H21.6235V137.407H47.94C48.2585 137.408 48.5738 137.343 48.8659 137.216C49.1579 137.089 49.4204 136.903 49.6368 136.669C49.8532 136.436 50.0188 136.16 50.123 135.859C50.2273 135.558 50.2679 135.239 50.2424 134.921Z" fill="white"/>
<path d="M47.9399 149.595H36.1631L40.3649 144.819L51.0942 144.75V141.999H20.9672V144.75L36.3012 144.819L32.2374 149.595H23.3847C23.0249 149.592 22.668 149.66 22.3344 149.794C22.0009 149.929 21.6971 150.128 21.4405 150.381C21.184 150.633 20.9796 150.933 20.8392 151.264C20.6987 151.595 20.6248 151.951 20.6218 152.311L20.5527 166.42H24.0063L24.0869 153.761C24.0869 153.6 24.1189 153.44 24.1809 153.291C24.2429 153.143 24.3339 153.008 24.4484 152.894C24.5629 152.781 24.6988 152.691 24.8482 152.63C24.9976 152.57 25.1575 152.539 25.3187 152.541H30.0847V165.649H33.5383V152.495H38.3964V165.603H41.85V152.495H46.7887C47.1459 152.495 47.4885 152.637 47.7411 152.889C47.9937 153.142 48.1356 153.484 48.1356 153.841V163.555C48.113 163.714 48.0325 163.86 47.9093 163.964C47.7862 164.068 47.629 164.123 47.4679 164.119H47.0534V166.489H47.2837C50.8985 166.489 51.5546 165.879 51.5546 162.841V153.197C51.5546 152.723 51.4611 152.254 51.2793 151.816C51.0975 151.378 50.831 150.98 50.4952 150.646C50.1594 150.311 49.7608 150.046 49.3223 149.866C48.8838 149.685 48.414 149.593 47.9399 149.595Z" fill="white"/>
<path d="M127.039 134.657L122.515 126.773L118.67 126.785L123.16 134.657H127.039Z" fill="white"/>
<path d="M78.0093 136.268L82.499 144.14H86.3785L81.8543 136.257L78.0093 136.268Z" fill="white"/>
<path d="M69.7208 144.14L65.2081 136.257L61.3516 136.268L65.8528 144.14H69.7208Z" fill="white"/>
<path d="M13.5423 133.287L8.82235 126.773L4.96582 126.785L9.66273 133.287H13.5423Z" fill="white"/>
<path d="M8.22368 182.452C13.9797 182.452 17.7441 185.962 17.7441 191.429C17.7441 196.895 14.0257 200.382 8.22368 200.382H1.37402V183.119C1.37402 182.924 1.45165 182.737 1.58982 182.599C1.72799 182.46 1.91539 182.383 2.11079 182.383L8.22368 182.452ZM3.61887 184.592V198.265H8.22368C12.9321 198.265 15.3727 195.491 15.3727 191.429C15.3727 187.366 12.9321 184.592 8.22368 184.592H3.61887Z" fill="white"/>
<path d="M31.2129 195.296C31.2129 198.978 28.5651 200.659 25.6526 200.659C22.7401 200.659 20.0923 198.978 20.0923 195.296V188.218H22.1875V195.123C22.1315 195.596 22.1812 196.076 22.333 196.527C22.4847 196.979 22.7348 197.391 23.0651 197.735C23.3954 198.078 23.7977 198.344 24.2431 198.513C24.6886 198.683 25.166 198.751 25.6411 198.714C26.1167 198.753 26.5951 198.686 27.0415 198.518C27.4879 198.349 27.8912 198.083 28.2219 197.739C28.5527 197.395 28.8026 196.982 28.9536 196.53C29.1046 196.077 29.1528 195.596 29.0947 195.123V188.218H30.4646C30.66 188.218 30.8474 188.295 30.9856 188.434C31.1238 188.572 31.2014 188.759 31.2014 188.954L31.2129 195.296Z" fill="white"/>
<path d="M45.8101 200.382H43.7034V198.771C43.1757 199.388 42.5156 199.879 41.7721 200.205C41.0287 200.532 40.2211 200.687 39.4094 200.659C37.8234 200.523 36.3459 199.798 35.2693 198.626C34.1926 197.454 33.5952 195.92 33.5952 194.329C33.5952 192.737 34.1926 191.204 35.2693 190.032C36.3459 188.86 37.8234 188.134 39.4094 187.999C40.2225 187.968 41.0321 188.122 41.7763 188.452C42.5205 188.781 43.1796 189.275 43.7034 189.898V188.989C43.7034 188.793 43.781 188.606 43.9192 188.468C44.0574 188.33 44.2448 188.252 44.4402 188.252H45.8101V200.382ZM35.4493 194.283C35.4211 194.851 35.5091 195.419 35.7077 195.952C35.9064 196.485 36.2116 196.973 36.6048 197.384C36.998 197.795 37.4709 198.122 37.9946 198.345C38.5184 198.568 39.082 198.681 39.6512 198.679C40.5251 198.716 41.39 198.49 42.1348 198.032C42.8797 197.574 43.4704 196.903 43.8311 196.106C44.1918 195.31 44.306 194.424 44.1591 193.562C44.0121 192.7 43.6108 191.901 43.0065 191.269C42.4023 190.637 41.6227 190.2 40.768 190.014C39.9134 189.828 39.0226 189.901 38.2102 190.225C37.3978 190.549 36.7008 191.109 36.2088 191.832C35.7168 192.555 35.4523 193.408 35.4493 194.283Z" fill="white"/>
<path d="M60.1085 192.833V200.383H58.0018V193.478C58.0018 191.233 56.77 189.921 54.6518 189.921C54.1719 189.9 53.6929 189.979 53.2453 190.153C52.7977 190.327 52.3913 190.593 52.0522 190.933C51.7131 191.273 51.4487 191.68 51.2759 192.128C51.1031 192.576 51.0256 193.055 51.0485 193.535V200.383H48.9648V188.218H50.3002C50.4956 188.218 50.683 188.296 50.8212 188.434C50.9594 188.572 51.037 188.759 51.037 188.955V189.806C51.5085 189.204 52.1168 188.723 52.8116 188.403C53.5063 188.082 54.2674 187.932 55.0317 187.965C55.6933 187.916 56.3577 188.007 56.9818 188.232C57.606 188.456 58.1759 188.81 58.6547 189.269C59.1334 189.728 59.5102 190.282 59.7607 190.896C60.0112 191.51 60.1297 192.17 60.1085 192.833Z" fill="white"/>
<path d="M72.5758 189.956L65.2081 198.507H72.8291V200.383H62.4683V198.852L70.0547 190.106H62.687V188.195H72.7485V189.45C72.7543 189.634 72.6929 189.814 72.5758 189.956Z" fill="white"/>
<path d="M77.4453 189.795C77.9149 189.194 78.5216 188.714 79.2145 188.396C79.9075 188.078 80.6666 187.93 81.4284 187.965C82.09 187.916 82.7544 188.007 83.3786 188.231C84.0028 188.456 84.5727 188.809 85.0514 189.268C85.5302 189.727 85.907 190.282 86.1575 190.896C86.4079 191.51 86.5264 192.17 86.5053 192.833V200.383H84.3986V193.477C84.3986 191.233 83.1668 189.921 81.0486 189.921C80.5687 189.9 80.0897 189.979 79.6421 190.153C79.1945 190.327 78.7881 190.593 78.449 190.933C78.1099 191.273 77.8455 191.68 77.6727 192.128C77.4998 192.576 77.4224 193.055 77.4453 193.535V200.383H75.3501V181.969H76.72C76.9154 181.969 77.1028 182.046 77.241 182.184C77.3792 182.323 77.4568 182.51 77.4568 182.705L77.4453 189.795Z" fill="white"/>
<path d="M101.494 194.306C101.515 195.585 101.154 196.841 100.458 197.915C99.7627 198.988 98.7632 199.83 97.5872 200.334C96.4111 200.838 95.1118 200.98 93.8545 200.743C92.5972 200.506 91.4388 199.901 90.5268 199.004C89.6149 198.107 88.9905 196.959 88.7332 195.706C88.476 194.453 88.5974 193.152 89.0822 191.968C89.5669 190.784 90.393 189.772 91.4553 189.059C92.5176 188.346 93.768 187.965 95.0475 187.965C95.8925 187.938 96.7341 188.084 97.5215 188.391C98.3088 188.699 99.0254 189.164 99.6281 189.757C100.231 190.349 100.707 191.058 101.028 191.84C101.348 192.622 101.507 193.461 101.494 194.306ZM90.742 194.306C90.7556 195.154 91.0196 195.98 91.5009 196.678C91.9822 197.377 92.6593 197.918 93.4471 198.233C94.2349 198.548 95.0984 198.624 95.929 198.45C96.7596 198.276 97.5203 197.861 98.1155 197.256C98.7107 196.652 99.114 195.885 99.2746 195.052C99.4352 194.219 99.346 193.357 99.0182 192.574C98.6904 191.792 98.1386 191.124 97.4321 190.654C96.7257 190.184 95.896 189.933 95.0475 189.933C94.4731 189.922 93.9024 190.028 93.3704 190.244C92.8383 190.461 92.3561 190.784 91.9531 191.193C91.5501 191.602 91.2348 192.09 91.0266 192.625C90.8184 193.16 90.7215 193.732 90.742 194.306Z" fill="white"/>
<path d="M114.71 195.296C114.71 198.978 112.062 200.659 109.15 200.659C106.237 200.659 103.589 198.978 103.589 195.296V188.218H105.696V195.123C105.696 196.039 106.06 196.917 106.708 197.564C107.355 198.212 108.234 198.576 109.15 198.576C110.066 198.576 110.944 198.212 111.592 197.564C112.239 196.917 112.603 196.039 112.603 195.123V188.218H113.973C114.169 188.218 114.356 188.295 114.494 188.434C114.632 188.572 114.71 188.759 114.71 188.954V195.296Z" fill="white"/>
<path d="M125.911 190.301H136.514V182.452H138.033C138.229 182.452 138.416 182.529 138.554 182.667C138.692 182.806 138.77 182.993 138.77 183.188V200.451H136.467V192.476H125.865V200.382H123.562V182.429H125.865L125.911 190.301Z" fill="white"/>
<path d="M153.264 195.296C153.264 198.978 150.616 200.659 147.703 200.659C144.791 200.659 142.143 198.978 142.143 195.296V188.218H144.238V195.123C144.238 196.039 144.602 196.917 145.25 197.564C145.897 198.212 146.776 198.576 147.692 198.576C148.608 198.576 149.486 198.212 150.134 197.564C150.782 196.917 151.145 196.039 151.145 195.123V188.218H152.515C152.711 188.218 152.898 188.295 153.036 188.434C153.175 188.572 153.252 188.759 153.252 188.954L153.264 195.296Z" fill="white"/>
<path d="M168.816 194.306C168.852 195.127 168.721 195.948 168.431 196.717C168.141 197.487 167.698 198.189 167.129 198.783C166.56 199.377 165.877 199.849 165.12 200.171C164.363 200.494 163.549 200.66 162.727 200.659C161.913 200.691 161.102 200.537 160.357 200.21C159.611 199.883 158.949 199.391 158.421 198.771V199.669C158.421 199.864 158.343 200.052 158.205 200.19C158.067 200.328 157.88 200.406 157.684 200.406H156.337V181.969H158.421V189.887C158.947 189.265 159.609 188.771 160.355 188.444C161.101 188.117 161.912 187.965 162.727 187.999C163.545 187.999 164.355 188.163 165.109 188.483C165.862 188.802 166.544 189.27 167.112 189.859C167.68 190.448 168.124 191.145 168.417 191.909C168.71 192.673 168.846 193.488 168.816 194.306ZM158.294 194.306C158.331 195.126 158.607 195.918 159.089 196.582C159.572 197.247 160.239 197.755 161.007 198.043C161.776 198.332 162.613 198.389 163.414 198.206C164.214 198.023 164.944 197.609 165.511 197.015C166.078 196.422 166.458 195.675 166.604 194.867C166.75 194.059 166.656 193.226 166.332 192.471C166.009 191.717 165.47 191.074 164.784 190.622C164.098 190.171 163.295 189.931 162.473 189.933C161.902 189.921 161.335 190.027 160.807 190.244C160.279 190.462 159.802 190.786 159.405 191.197C159.009 191.607 158.701 192.095 158.502 192.631C158.303 193.166 158.217 193.736 158.248 194.306H158.294Z" fill="white"/>
<path d="M121.283 0.132812H62.2954L56.8732 7.69397H104.994C122.262 7.69397 126.602 21.2856 121.778 27.8225L114.019 38.3644H87.8291C82.8559 38.3644 84.3755 36.3159 85.1928 35.1995C86.8275 32.9784 89.5213 29.2035 91.133 27.0284C92.7447 24.8533 92.7562 23.6564 89.5098 23.6564H45.4303L20.3916 58.585C18.0201 61.8561 16.6013 65.72 16.2928 69.7481C15.9843 73.7762 16.7981 77.8109 18.6439 81.4048C20.4896 84.9987 23.2952 88.0111 26.7494 90.1079C30.2035 92.2047 34.1712 93.3038 38.2122 93.2835H91.1676C99.0581 93.2748 106.835 91.3996 113.861 87.8112C120.888 84.2228 126.966 79.0231 131.598 72.637L147.979 48.1467C161.172 27.6154 152.354 0.132812 121.283 0.132812ZM75.8681 63.6373H35.7602C35.0799 63.6368 34.413 63.448 33.8335 63.0919C33.254 62.7358 32.7844 62.2262 32.4769 61.6196C32.1693 61.013 32.0358 60.3331 32.091 59.6553C32.1463 58.9775 32.3883 58.3282 32.79 57.7794L52.0842 31.5743H72.1151C75.3615 31.5743 75.3155 32.8057 73.7383 34.9463L67.7521 43.0829C66.9232 44.2338 65.4497 46.2478 70.3999 46.2478H108.712C105.5 50.7707 94.8629 63.6373 75.8681 63.6373Z" fill="white"/>
</svg>
