<svg width="18" height="21" viewBox="0 0 18 21" fill="none" xmlns="http://www.w3.org/2000/svg">
<path d="M17.163 9.20289H15.4787V3.65475C15.4787 1.90361 14.0595 0.484375 12.3084 0.484375H6.16578C4.41464 0.484375 2.99541 1.90361 2.99541 3.65475V9.20289H1.31115C0.872744 9.20289 0.518555 9.55708 0.518555 9.99549V19.5066C0.518555 19.945 0.872744 20.2992 1.31115 20.2992H17.163C17.6014 20.2992 17.9556 19.945 17.9556 19.5066V9.99549C17.9556 9.55708 17.6014 9.20289 17.163 9.20289ZM4.77874 3.65475C4.77874 2.8894 5.40043 2.26771 6.16578 2.26771H12.3084C13.0737 2.26771 13.6954 2.8894 13.6954 3.65475V9.20289H4.77874V3.65475ZM16.1723 18.5159H2.30189V10.9862H16.1723V18.5159ZM8.54355 15.073V16.3858C8.54355 16.4947 8.63272 16.5839 8.7417 16.5839H9.73244C9.84142 16.5839 9.93059 16.4947 9.93059 16.3858V15.073C10.135 14.9262 10.2877 14.7184 10.3664 14.4793C10.4452 14.2403 10.4461 13.9824 10.369 13.7428C10.2919 13.5032 10.1408 13.2943 9.93739 13.146C9.73397 12.9978 9.48877 12.9179 9.23707 12.9179C8.98538 12.9179 8.74018 12.9978 8.53676 13.146C8.33334 13.2943 8.18221 13.5032 8.1051 13.7428C8.028 13.9824 8.02891 14.2403 8.1077 14.4793C8.18649 14.7184 8.3391 14.9262 8.54355 15.073Z" fill="#4057FD"/>
</svg>
