<svg width="20" height="21" viewBox="0 0 20 21" fill="none" xmlns="http://www.w3.org/2000/svg">
<path d="M18.8187 16.6678C18.3514 15.561 17.6734 14.5557 16.8223 13.7079C15.9738 12.8576 14.9687 12.1797 13.8625 11.7116C13.8526 11.7066 13.8427 11.7041 13.8328 11.6992C15.3758 10.5846 16.379 8.76907 16.379 6.72072C16.379 3.32743 13.6297 0.578125 10.2364 0.578125C6.84308 0.578125 4.09377 3.32743 4.09377 6.72072C4.09377 8.76907 5.0969 10.5846 6.63998 11.7017C6.63007 11.7066 6.62016 11.7091 6.61025 11.7141C5.50062 12.1822 4.50493 12.8534 3.65042 13.7104C2.80014 14.5589 2.12221 15.564 1.65407 16.6702C1.19418 17.7532 0.946144 18.9144 0.923402 20.0908C0.922741 20.1172 0.927377 20.1435 0.937039 20.1681C0.9467 20.1927 0.961191 20.2152 0.979657 20.2341C0.998123 20.253 1.02019 20.2681 1.04456 20.2783C1.06893 20.2886 1.09511 20.2939 1.12155 20.2939H2.60766C2.71664 20.2939 2.80333 20.2072 2.80581 20.1007C2.85535 18.1885 3.62317 16.3978 4.98048 15.0405C6.38486 13.6361 8.24993 12.8633 10.2364 12.8633C12.2228 12.8633 14.0879 13.6361 15.4922 15.0405C16.8496 16.3978 17.6174 18.1885 17.6669 20.1007C17.6694 20.2097 17.7561 20.2939 17.8651 20.2939H19.3512C19.3776 20.2939 19.4038 20.2886 19.4282 20.2783C19.4525 20.2681 19.4746 20.253 19.4931 20.2341C19.5115 20.2152 19.526 20.1927 19.5357 20.1681C19.5454 20.1435 19.55 20.1172 19.5493 20.0908C19.5246 18.9068 19.2794 17.7551 18.8187 16.6678ZM10.2364 10.9809C9.09949 10.9809 8.02949 10.5375 7.22451 9.73257C6.41954 8.92759 5.97618 7.85759 5.97618 6.72072C5.97618 5.58384 6.41954 4.51384 7.22451 3.70887C8.02949 2.90389 9.09949 2.46053 10.2364 2.46053C11.3732 2.46053 12.4432 2.90389 13.2482 3.70887C14.0532 4.51384 14.4966 5.58384 14.4966 6.72072C14.4966 7.85759 14.0532 8.92759 13.2482 9.73257C12.4432 10.5375 11.3732 10.9809 10.2364 10.9809Z" fill="#4057FD"/>
</svg>
